<svg xmlns="http://www.w3.org/2000/svg" xmlns:xlink="http://www.w3.org/1999/xlink" width="1000" zoomAndPan="magnify" viewBox="0 0 750 187.499995" height="250" preserveAspectRatio="xMidYMid meet" version="1.0"><defs><g/><clipPath id="bf128802bd"><path d="M 663 34 L 741.921875 34 L 741.921875 90 L 663 90 Z M 663 34 " clip-rule="nonzero"/></clipPath><clipPath id="394742104a"><path d="M 660 8.152344 L 716 8.152344 L 716 86 L 660 86 Z M 660 8.152344 " clip-rule="nonzero"/></clipPath><clipPath id="f25e88b40c"><path d="M 576.578125 15 L 733 15 L 733 171.902344 L 576.578125 171.902344 Z M 576.578125 15 " clip-rule="nonzero"/></clipPath><clipPath id="37ac817a79"><path d="M 662 45 L 725.890625 45 L 725.890625 91 L 662 91 Z M 662 45 " clip-rule="nonzero"/></clipPath><clipPath id="c36c065338"><path d="M 659 24.429688 L 705 24.429688 L 705 88 L 659 88 Z M 659 24.429688 " clip-rule="nonzero"/></clipPath><clipPath id="37ba5bc8a6"><path d="M 591 30 L 719 30 L 719 157.824219 L 591 157.824219 Z M 591 30 " clip-rule="nonzero"/></clipPath><clipPath id="508827fd91"><path d="M 655.539062 24.429688 L 660.570312 24.429688 L 660.570312 90.726562 L 655.539062 90.726562 Z M 655.539062 24.429688 " clip-rule="nonzero"/></clipPath><clipPath id="2f6a62152e"><path d="M 659.300781 88.972656 L 743.992188 88.972656 L 743.992188 92.964844 L 659.300781 92.964844 Z M 659.300781 88.972656 " clip-rule="nonzero"/></clipPath><clipPath id="fd368d2043"><path d="M 655 29 L 720 29 L 720 94 L 655 94 Z M 655 29 " clip-rule="nonzero"/></clipPath><clipPath id="4d7dc533d7"><path d="M 660.042969 93.960938 L 655.542969 89.460938 L 715.433594 29.570312 L 719.933594 34.070312 Z M 660.042969 93.960938 " clip-rule="nonzero"/></clipPath><clipPath id="2cf5c58030"><path d="M 660.042969 93.960938 L 655.542969 89.460938 L 715.429688 29.574219 L 719.929688 34.074219 Z M 660.042969 93.960938 " clip-rule="nonzero"/></clipPath><clipPath id="990126ea77"><path d="M 634.042969 91.128906 L 718.734375 91.128906 L 718.734375 95.167969 L 634.042969 95.167969 Z M 634.042969 91.128906 " clip-rule="nonzero"/></clipPath><clipPath id="528fd1b32d"><path d="M 653.542969 30.734375 L 657.535156 30.734375 L 657.535156 115.429688 L 653.542969 115.429688 Z M 653.542969 30.734375 " clip-rule="nonzero"/></clipPath></defs><g fill="#0b1e40" fill-opacity="1"><g transform="translate(6.012569, 172.284982)"><g><path d="M 38.921875 -78.1875 C 44.359375 -78.1875 49.421875 -77.171875 54.109375 -75.140625 C 58.804688 -73.109375 62.921875 -70.328125 66.453125 -66.796875 C 69.984375 -63.265625 72.757812 -59.148438 74.78125 -54.453125 C 76.8125 -49.765625 77.828125 -44.703125 77.828125 -39.265625 L 77.828125 -0.171875 L 38.921875 -0.171875 C 33.585938 -0.171875 28.546875 -1.179688 23.796875 -3.203125 C 19.046875 -5.234375 14.875 -8.046875 11.28125 -11.640625 C 7.695312 -15.234375 4.890625 -19.398438 2.859375 -24.140625 C 0.835938 -28.890625 -0.171875 -33.929688 -0.171875 -39.265625 C -0.171875 -44.703125 0.835938 -49.765625 2.859375 -54.453125 C 4.890625 -59.148438 7.695312 -63.265625 11.28125 -66.796875 C 14.875 -70.328125 19.046875 -73.109375 23.796875 -75.140625 C 28.546875 -77.171875 33.585938 -78.1875 38.921875 -78.1875 Z M 62.375 -15.640625 L 62.375 -39.265625 C 62.375 -42.503906 61.765625 -45.539062 60.546875 -48.375 C 59.328125 -51.21875 57.644531 -53.707031 55.5 -55.84375 C 53.363281 -57.988281 50.875 -59.671875 48.03125 -60.890625 C 45.195312 -62.109375 42.160156 -62.71875 38.921875 -62.71875 C 35.671875 -62.71875 32.597656 -62.109375 29.703125 -60.890625 C 26.804688 -59.671875 24.285156 -57.988281 22.140625 -55.84375 C 20.003906 -53.707031 18.328125 -51.21875 17.109375 -48.375 C 15.890625 -45.539062 15.28125 -42.503906 15.28125 -39.265625 C 15.28125 -36.023438 15.890625 -32.957031 17.109375 -30.0625 C 18.328125 -27.164062 20.003906 -24.644531 22.140625 -22.5 C 24.285156 -20.351562 26.804688 -18.671875 29.703125 -17.453125 C 32.597656 -16.242188 35.671875 -15.640625 38.921875 -15.640625 Z M 62.375 -15.640625 "/></g></g></g><g fill="#0b1e40" fill-opacity="1"><g transform="translate(88.361085, 172.284982)"><g><path d="M 78.1875 -109.453125 L 78.1875 -39.265625 C 78.1875 -33.929688 77.171875 -28.890625 75.140625 -24.140625 C 73.109375 -19.398438 70.328125 -15.234375 66.796875 -11.640625 C 63.265625 -8.046875 59.125 -5.234375 54.375 -3.203125 C 49.625 -1.179688 44.585938 -0.171875 39.265625 -0.171875 C 33.929688 -0.171875 28.890625 -1.179688 24.140625 -3.203125 C 19.398438 -5.234375 15.234375 -8.046875 11.640625 -11.640625 C 8.046875 -15.234375 5.234375 -19.398438 3.203125 -24.140625 C 1.179688 -28.890625 0.171875 -33.929688 0.171875 -39.265625 C 0.171875 -44.703125 1.179688 -49.765625 3.203125 -54.453125 C 5.234375 -59.148438 8.046875 -63.265625 11.640625 -66.796875 C 15.234375 -70.328125 19.398438 -73.109375 24.140625 -75.140625 C 28.890625 -77.171875 33.929688 -78.1875 39.265625 -78.1875 L 62.71875 -78.1875 L 62.71875 -109.453125 Z M 39.265625 -15.640625 C 42.503906 -15.640625 45.539062 -16.242188 48.375 -17.453125 C 51.21875 -18.671875 53.707031 -20.351562 55.84375 -22.5 C 57.988281 -24.644531 59.671875 -27.164062 60.890625 -30.0625 C 62.109375 -32.957031 62.71875 -36.023438 62.71875 -39.265625 L 62.71875 -62.71875 L 39.265625 -62.71875 C 36.023438 -62.71875 32.957031 -62.109375 30.0625 -60.890625 C 27.164062 -59.671875 24.644531 -57.988281 22.5 -55.84375 C 20.351562 -53.707031 18.671875 -51.21875 17.453125 -48.375 C 16.242188 -45.539062 15.640625 -42.503906 15.640625 -39.265625 C 15.640625 -36.023438 16.242188 -32.957031 17.453125 -30.0625 C 18.671875 -27.164062 20.351562 -24.644531 22.5 -22.5 C 24.644531 -20.351562 27.164062 -18.671875 30.0625 -17.453125 C 32.957031 -16.242188 36.023438 -15.640625 39.265625 -15.640625 Z M 39.265625 -15.640625 "/></g></g></g><g fill="#0b1e40" fill-opacity="1"><g transform="translate(171.925713, 172.284982)"><g><path d="M 101.28125 -78.1875 C 106.726562 -78.1875 111.796875 -77.171875 116.484375 -75.140625 C 121.179688 -73.109375 125.320312 -70.328125 128.90625 -66.796875 C 132.5 -63.265625 135.304688 -59.148438 137.328125 -54.453125 C 139.359375 -49.765625 140.375 -44.703125 140.375 -39.265625 L 140.375 -0.171875 L 124.921875 -0.171875 L 124.921875 -39.265625 C 124.921875 -42.503906 124.3125 -45.539062 123.09375 -48.375 C 121.875 -51.21875 120.191406 -53.707031 118.046875 -55.84375 C 115.910156 -57.988281 113.394531 -59.671875 110.5 -60.890625 C 107.601562 -62.109375 104.53125 -62.71875 101.28125 -62.71875 C 98.039062 -62.71875 95 -62.109375 92.15625 -60.890625 C 89.320312 -59.671875 86.832031 -57.988281 84.6875 -55.84375 C 82.550781 -53.707031 80.875 -51.21875 79.65625 -48.375 C 78.4375 -45.539062 77.828125 -42.503906 77.828125 -39.265625 L 77.828125 -0.171875 L 62.375 -0.171875 L 62.375 -39.265625 C 62.375 -42.503906 61.765625 -45.539062 60.546875 -48.375 C 59.328125 -51.21875 57.644531 -53.707031 55.5 -55.84375 C 53.363281 -57.988281 50.847656 -59.671875 47.953125 -60.890625 C 45.054688 -62.109375 41.988281 -62.71875 38.75 -62.71875 C 35.5 -62.71875 32.453125 -62.109375 29.609375 -60.890625 C 26.773438 -59.671875 24.285156 -57.988281 22.140625 -55.84375 C 20.003906 -53.707031 18.328125 -51.21875 17.109375 -48.375 C 15.890625 -45.539062 15.28125 -42.503906 15.28125 -39.265625 L 15.28125 -0.171875 L -0.171875 -0.171875 L -0.171875 -39.265625 C -0.171875 -44.703125 0.835938 -49.765625 2.859375 -54.453125 C 4.890625 -59.148438 7.671875 -63.265625 11.203125 -66.796875 C 14.734375 -70.328125 18.875 -73.109375 23.625 -75.140625 C 28.375 -77.171875 33.414062 -78.1875 38.75 -78.1875 C 45.226562 -78.1875 51.160156 -76.765625 56.546875 -73.921875 C 61.929688 -71.085938 66.421875 -67.238281 70.015625 -62.375 C 73.609375 -67.238281 78.125 -71.085938 83.5625 -73.921875 C 89.007812 -76.765625 94.914062 -78.1875 101.28125 -78.1875 Z M 101.28125 -78.1875 "/></g></g></g><g fill="#0b1e40" fill-opacity="1"><g transform="translate(317.85979, 172.284982)"><g><path d="M 101.28125 -78.1875 C 106.726562 -78.1875 111.796875 -77.171875 116.484375 -75.140625 C 121.179688 -73.109375 125.320312 -70.328125 128.90625 -66.796875 C 132.5 -63.265625 135.304688 -59.148438 137.328125 -54.453125 C 139.359375 -49.765625 140.375 -44.703125 140.375 -39.265625 L 140.375 -0.171875 L 124.921875 -0.171875 L 124.921875 -39.265625 C 124.921875 -42.503906 124.3125 -45.539062 123.09375 -48.375 C 121.875 -51.21875 120.191406 -53.707031 118.046875 -55.84375 C 115.910156 -57.988281 113.394531 -59.671875 110.5 -60.890625 C 107.601562 -62.109375 104.53125 -62.71875 101.28125 -62.71875 C 98.039062 -62.71875 95 -62.109375 92.15625 -60.890625 C 89.320312 -59.671875 86.832031 -57.988281 84.6875 -55.84375 C 82.550781 -53.707031 80.875 -51.21875 79.65625 -48.375 C 78.4375 -45.539062 77.828125 -42.503906 77.828125 -39.265625 L 77.828125 -0.171875 L 62.375 -0.171875 L 62.375 -39.265625 C 62.375 -42.503906 61.765625 -45.539062 60.546875 -48.375 C 59.328125 -51.21875 57.644531 -53.707031 55.5 -55.84375 C 53.363281 -57.988281 50.847656 -59.671875 47.953125 -60.890625 C 45.054688 -62.109375 41.988281 -62.71875 38.75 -62.71875 C 35.5 -62.71875 32.453125 -62.109375 29.609375 -60.890625 C 26.773438 -59.671875 24.285156 -57.988281 22.140625 -55.84375 C 20.003906 -53.707031 18.328125 -51.21875 17.109375 -48.375 C 15.890625 -45.539062 15.28125 -42.503906 15.28125 -39.265625 L 15.28125 -0.171875 L -0.171875 -0.171875 L -0.171875 -39.265625 C -0.171875 -44.703125 0.835938 -49.765625 2.859375 -54.453125 C 4.890625 -59.148438 7.671875 -63.265625 11.203125 -66.796875 C 14.734375 -70.328125 18.875 -73.109375 23.625 -75.140625 C 28.375 -77.171875 33.414062 -78.1875 38.75 -78.1875 C 45.226562 -78.1875 51.160156 -76.765625 56.546875 -73.921875 C 61.929688 -71.085938 66.421875 -67.238281 70.015625 -62.375 C 73.609375 -67.238281 78.125 -71.085938 83.5625 -73.921875 C 89.007812 -76.765625 94.914062 -78.1875 101.28125 -78.1875 Z M 101.28125 -78.1875 "/></g></g></g><g fill="#0b1e40" fill-opacity="1"><g transform="translate(463.793867, 172.284982)"><g><path d="M 0.171875 -78.1875 L 15.46875 -78.1875 L 15.46875 -0.171875 L 0.171875 -0.171875 Z M 0.171875 -78.1875 "/></g></g></g><g fill="#0b1e40" fill-opacity="1"><g transform="translate(484.294143, 172.284982)"><g><path d="M 76.4375 -78 C 69.957031 -69.195312 63.878906 -60.742188 58.203125 -52.640625 C 55.765625 -49.160156 53.269531 -45.65625 50.71875 -42.125 C 48.175781 -38.59375 45.742188 -35.175781 43.421875 -31.875 C 41.109375 -28.570312 38.910156 -25.503906 36.828125 -22.671875 C 34.742188 -19.835938 33.007812 -17.4375 31.625 -15.46875 L 78 -15.46875 L 78 0 L 1.390625 0 C 7.753906 -8.800781 13.832031 -17.253906 19.625 -25.359375 C 22.0625 -28.835938 24.582031 -32.34375 27.1875 -35.875 C 29.789062 -39.40625 32.25 -42.820312 34.5625 -46.125 C 36.882812 -49.425781 39.085938 -52.492188 41.171875 -55.328125 C 43.253906 -58.171875 44.992188 -60.578125 46.390625 -62.546875 L 0 -62.546875 L 0 -78 Z M 76.4375 -78 "/></g></g></g><g clip-path="url(#bf128802bd)"><path fill="#0b1e40" d="M 718.671875 34.445312 L 663.933594 89.183594 L 741.503906 89.183594 C 741.394531 67.804688 732.695312 48.464844 718.671875 34.445312 Z M 718.671875 34.445312 " fill-opacity="1" fill-rule="nonzero"/></g><g clip-path="url(#394742104a)"><path fill="#0b1e40" d="M 660.476562 8.152344 L 660.476562 85.765625 L 660.519531 85.765625 L 715.257812 31.027344 C 701.226562 16.988281 681.871094 8.261719 660.476562 8.152344 Z M 660.476562 8.152344 " fill-opacity="1" fill-rule="nonzero"/></g><g clip-path="url(#f25e88b40c)"><path fill="#0b1e40" d="M 655.148438 93.265625 L 655.148438 15.652344 C 655.007812 15.652344 654.871094 15.648438 654.734375 15.648438 C 611.636719 15.648438 576.699219 50.582031 576.699219 93.679688 C 576.699219 136.777344 611.636719 171.714844 654.734375 171.714844 C 697.828125 171.714844 732.765625 136.777344 732.765625 93.679688 C 732.765625 93.542969 732.761719 93.402344 732.761719 93.265625 Z M 655.148438 93.265625 " fill-opacity="1" fill-rule="nonzero"/></g><g clip-path="url(#37ac817a79)"><path fill="#0b1e40" d="M 706.800781 45.875 L 662.152344 90.519531 L 725.421875 90.519531 C 725.335938 73.085938 718.238281 57.3125 706.800781 45.875 Z M 706.800781 45.875 " fill-opacity="1" fill-rule="nonzero"/></g><g clip-path="url(#c36c065338)"><path fill="#0b1e40" d="M 659.332031 24.429688 L 659.332031 87.734375 L 659.367188 87.734375 L 704.015625 43.089844 C 692.570312 31.636719 676.785156 24.519531 659.332031 24.429688 Z M 659.332031 24.429688 " fill-opacity="1" fill-rule="nonzero"/></g><g clip-path="url(#37ba5bc8a6)"><path fill="#ffffff" d="M 654.988281 93.851562 L 654.988281 30.546875 C 654.875 30.546875 654.761719 30.542969 654.648438 30.542969 C 619.5 30.542969 591.003906 59.039062 591.003906 94.1875 C 591.003906 129.339844 619.5 157.835938 654.648438 157.835938 C 689.800781 157.835938 718.296875 129.339844 718.296875 94.1875 C 718.296875 94.078125 718.292969 93.964844 718.292969 93.851562 Z M 654.988281 93.851562 " fill-opacity="1" fill-rule="nonzero"/></g><g clip-path="url(#508827fd91)"><path fill="#ffffff" d="M 655.539062 24.429688 L 660.570312 24.429688 L 660.570312 90.734375 L 655.539062 90.734375 Z M 655.539062 24.429688 " fill-opacity="1" fill-rule="nonzero"/></g><g clip-path="url(#2f6a62152e)"><path fill="#ffffff" d="M 659.300781 92.964844 L 659.300781 88.972656 L 743.996094 88.972656 L 743.996094 92.964844 Z M 659.300781 92.964844 " fill-opacity="1" fill-rule="nonzero"/></g><g clip-path="url(#fd368d2043)"><g clip-path="url(#4d7dc533d7)"><g clip-path="url(#2cf5c58030)"><path fill="#ffffff" d="M 660.042969 93.960938 L 655.542969 89.460938 L 715.433594 29.570312 L 719.933594 34.070312 Z M 660.042969 93.960938 " fill-opacity="1" fill-rule="nonzero"/></g></g></g><g clip-path="url(#990126ea77)"><path fill="#ffffff" d="M 634.042969 95.167969 L 634.042969 91.128906 L 718.730469 91.128906 L 718.730469 95.167969 Z M 634.042969 95.167969 " fill-opacity="1" fill-rule="nonzero"/></g><g clip-path="url(#528fd1b32d)"><path fill="#ffffff" d="M 653.542969 30.734375 L 657.535156 30.734375 L 657.535156 115.433594 L 653.542969 115.433594 Z M 653.542969 30.734375 " fill-opacity="1" fill-rule="nonzero"/></g></svg>