<?xml version="1.0" standalone="no"?>
<!DOCTYPE svg PUBLIC "-//W3C//DTD SVG 20010904//EN"
 "http://www.w3.org/TR/2001/REC-SVG-20010904/DTD/svg10.dtd">
<svg version="1.0" xmlns="http://www.w3.org/2000/svg"
 width="1000.000000pt" height="250.000000pt" viewBox="0 0 1000.000000 250.000000"
 preserveAspectRatio="xMidYMid meet">

<g transform="translate(0.000000,250.000000) scale(0.100000,-0.100000)"
fill="#000000" stroke="none">
<path d="M5510 2189 l0 -314 220 220 c121 121 219 224 217 230 -2 5 -37 33
-79 61 -85 58 -200 100 -295 110 l-63 7 0 -314z"/>
<path d="M5369 2429 c-227 -33 -429 -201 -506 -421 -33 -94 -42 -241 -20 -345
39 -182 172 -352 338 -431 108 -51 172 -66 284 -66 112 0 176 15 284 66 114
54 229 168 283 278 41 82 68 181 68 248 l0 42 -53 0 -53 0 -16 -86 c-49 -258
-257 -434 -512 -434 -182 0 -336 82 -435 231 -56 84 -82 172 -83 284 -1 155
39 253 148 362 87 88 180 137 297 155 l77 12 0 58 c0 66 6 63 -101 47z"/>
<path d="M5765 2060 l-220 -220 313 0 312 0 0 46 c0 56 -22 143 -54 215 -24
55 -110 179 -124 179 -4 0 -106 -99 -227 -220z"/>
<path d="M1350 1926 l0 -124 -138 -4 c-126 -3 -142 -6 -194 -31 -156 -77 -223
-259 -152 -417 52 -117 154 -183 285 -184 68 -1 84 3 145 34 49 25 79 49 105
84 65 86 69 110 69 457 l0 309 -60 0 -60 0 0 -124z m0 -353 c0 -54 -5 -116
-11 -138 -45 -164 -253 -198 -350 -57 -19 29 -24 48 -24 102 0 57 4 73 28 108
47 67 90 82 235 82 l122 0 0 -97z"/>
<path d="M383 1782 c-77 -28 -129 -66 -167 -125 -110 -166 -48 -381 132 -465
56 -26 62 -27 252 -27 l195 0 0 185 c-1 218 -11 261 -81 339 -85 95 -220 133
-331 93z m183 -132 c24 -12 54 -39 70 -62 28 -39 29 -47 32 -170 l4 -128 -122
0 c-101 0 -127 3 -160 20 -141 72 -138 268 5 343 43 23 120 21 171 -3z"/>
<path d="M1750 1787 c-87 -25 -155 -82 -202 -170 -21 -39 -23 -57 -26 -249
l-3 -208 60 0 61 0 0 178 c0 151 3 183 19 217 35 76 95 115 176 115 81 0 141
-39 176 -115 16 -34 19 -66 19 -217 l0 -178 59 0 59 0 4 188 c3 165 5 191 23
221 63 107 204 135 292 58 65 -57 73 -88 73 -289 l0 -178 60 0 60 0 0 198 c0
196 0 197 -28 257 -67 141 -222 213 -367 170 -59 -17 -124 -55 -158 -92 -17
-19 -18 -19 -56 17 -77 74 -201 105 -301 77z"/>
<path d="M2943 1786 c-69 -22 -130 -64 -168 -113 -56 -73 -65 -121 -65 -330
l0 -183 59 0 59 0 4 183 c3 206 12 236 81 291 29 24 50 31 97 34 76 6 136 -22
176 -80 l29 -41 3 -194 3 -194 62 3 62 3 5 196 5 196 28 36 c86 113 265 99
326 -25 19 -40 21 -61 21 -226 l0 -182 66 0 66 0 -4 198 c-3 176 -6 202 -25
244 -30 66 -96 133 -161 165 -114 55 -264 30 -354 -60 l-36 -35 -33 34 c-73
75 -211 111 -306 80z"/>
<path d="M3905 1787 c-3 -7 -4 -149 -3 -317 l3 -305 63 -3 62 -3 0 321 0 320
-60 0 c-40 0 -62 -4 -65 -13z"/>
<path d="M4070 1735 l0 -65 189 0 190 0 -180 -250 c-98 -137 -179 -252 -179
-255 0 -3 140 -5 310 -5 l311 0 -3 63 -3 62 -187 3 -187 2 164 230 c90 126
171 240 180 254 l17 26 -311 0 -311 0 0 -65z"/>
<path d="M7140 790 l0 -461 63 3 62 3 5 201 5 201 29 37 c72 95 188 111 284
39 64 -48 72 -79 72 -293 l0 -190 65 0 65 0 0 195 c0 224 -10 269 -81 349 -46
52 -140 102 -210 111 -50 7 -157 -15 -196 -40 -12 -8 -25 -15 -28 -15 -3 0 -5
72 -5 160 l0 160 -65 0 -65 0 0 -460z"/>
<path d="M4662 978 c-99 -15 -181 -74 -233 -170 l-34 -63 -3 -207 -4 -208 66
0 65 0 3 198 c3 199 3 199 31 239 29 42 82 77 134 88 49 10 132 -18 169 -57
57 -59 59 -68 62 -275 l4 -193 65 0 66 0 -6 198 c-6 229 -14 265 -84 342 -78
87 -184 125 -301 108z"/>
<path d="M5353 980 c-97 -20 -187 -90 -230 -178 -37 -76 -40 -201 -6 -274 32
-70 94 -131 166 -164 55 -25 76 -28 190 -32 70 -2 127 -7 127 -11 0 -3 -11
-23 -25 -43 -33 -49 -96 -78 -168 -78 l-57 0 0 -66 0 -67 78 5 c129 7 228 72
283 183 23 49 24 56 24 275 l0 225 -27 51 c-67 128 -220 202 -355 174z m122
-131 c52 -15 119 -82 134 -134 6 -22 11 -88 11 -147 l0 -108 -112 0 c-129 0
-174 10 -219 47 -91 77 -90 237 2 305 61 46 114 56 184 37z"/>
<path d="M8093 980 c-97 -20 -187 -90 -230 -178 -37 -76 -40 -201 -6 -274 32
-70 94 -131 166 -164 61 -28 67 -29 260 -32 l198 -4 -3 214 c-3 209 -3 214
-30 264 -67 128 -220 202 -355 174z m159 -147 c81 -47 111 -130 106 -285 l-3
-83 -108 -3 c-123 -3 -173 7 -218 45 -146 123 -45 365 144 348 27 -2 63 -12
79 -22z"/>
<path d="M8770 974 c-104 -28 -177 -91 -223 -192 -19 -42 -22 -68 -25 -249
l-4 -203 66 0 66 0 0 173 c0 95 5 190 11 212 15 52 82 119 134 134 22 6 59 11
83 11 l43 0 -3 63 -3 62 -45 2 c-25 1 -70 -5 -100 -13z"/>
<path d="M8960 660 l0 -330 60 0 60 0 0 330 0 330 -60 0 -60 0 0 -330z"/>
<path d="M9387 980 c-96 -24 -180 -90 -225 -175 -24 -44 -27 -61 -27 -145 0
-83 3 -101 27 -145 32 -62 103 -129 166 -157 42 -20 69 -22 250 -26 l203 -4
-3 209 c-3 236 -10 262 -87 346 -71 77 -208 121 -304 97z m178 -157 c22 -16
50 -48 63 -73 19 -39 22 -60 22 -167 l0 -123 -118 0 c-136 0 -183 17 -235 82
-55 69 -50 180 11 248 68 75 175 89 257 33z"/>
<path d="M3960 964 c-83 -30 -149 -91 -188 -174 -32 -68 -36 -168 -9 -247 24
-69 93 -145 165 -180 49 -24 69 -28 142 -28 102 0 150 19 225 88 l50 45 -44
46 -44 45 -44 -39 c-25 -21 -61 -44 -80 -51 -35 -11 -127 -8 -140 5 -4 4 74
87 172 186 l179 180 -39 41 c-63 64 -126 92 -220 96 -56 2 -94 -2 -125 -13z
m163 -118 c15 -4 27 -10 27 -14 0 -4 -58 -65 -130 -137 l-129 -129 -11 28
c-14 38 -13 100 3 139 17 38 87 105 119 111 69 15 61 15 121 2z"/>
<path d="M5990 958 c-74 -29 -150 -105 -178 -181 -60 -158 2 -326 148 -406 60
-33 71 -36 150 -36 72 0 93 4 140 27 30 15 75 45 100 67 l45 40 -47 48 -48 47
-37 -36 c-21 -20 -52 -43 -70 -52 -37 -18 -115 -21 -145 -5 -19 10 -7 25 162
194 l182 182 -54 47 c-97 85 -229 110 -348 64z m179 -113 l34 -7 -134 -134
c-73 -73 -135 -132 -137 -129 -14 13 -19 86 -10 129 14 65 77 130 139 144 24
5 51 8 59 7 8 -2 30 -7 49 -10z"/>
<path d="M6625 952 c-73 -36 -126 -89 -159 -162 -25 -53 -26 -62 -26 -257 l0
-203 60 0 60 0 0 166 c0 202 9 244 65 300 96 96 256 71 314 -49 19 -39 21 -61
21 -230 l0 -187 66 0 65 0 -3 208 c-3 197 -4 210 -28 257 -30 61 -93 126 -152
156 -33 17 -64 24 -133 26 -83 4 -94 2 -150 -25z"/>
</g>
</svg>
