<?xml version="1.0" encoding="UTF-8"?>
<svg version="1.1" xmlns="http://www.w3.org/2000/svg" width="500" height="500">
<path d="M0 0 C165 0 330 0 500 0 C500 165 500 330 500 500 C335 500 170 500 0 500 C0 335 0 170 0 0 Z " fill="#F266B9" transform="translate(0,0)"/>
<path d="M0 0 C0.12528076 0.5576001 0.25056152 1.1152002 0.37963867 1.68969727 C5.19954526 22.96942092 10.26378398 43.24784691 25 60 C25.95712891 61.17175781 25.95712891 61.17175781 26.93359375 62.3671875 C40.64481333 78.75443988 61.2520423 85.96798352 82 88 C87.66139704 88.43633352 93.32813285 88.73906664 99 89 C99.30744141 88.06027344 99.30744141 88.06027344 99.62109375 87.1015625 C100.02521484 85.87566406 100.02521484 85.87566406 100.4375 84.625 C100.70433594 83.81289062 100.97117187 83.00078125 101.24609375 82.1640625 C102 80 102 80 103 78 C107.1500316 77.50594862 108.71915862 77.81097215 112.25 80.1875 C116.86983636 84.91233264 117.38937158 89.31304457 117.375 95.75 C117.37411377 96.4601123 117.37322754 97.17022461 117.37231445 97.90185547 C117.23945583 103.80563406 115.95587356 107.97936182 113 113 C112.566875 113.99 112.13375 114.98 111.6875 116 C105.59913291 126.82376371 96.44631611 135.96652484 85 141 C84.34 141 83.68 141 83 141 C82.74347656 141.87269531 82.48695313 142.74539063 82.22265625 143.64453125 C74.14981665 165.79970445 50.70343512 186.02006606 30.0234375 196.22265625 C28 197 28 197 25 197 C25 201.62 25 206.24 25 211 C26.45535156 211.10441406 27.91070312 211.20882812 29.41015625 211.31640625 C34.72196906 211.85515049 39.42880212 213.13094314 44.4375 214.9375 C45.2944043 215.24469971 46.15130859 215.55189941 47.03417969 215.8684082 C83.38310289 229.38437369 113.02952817 257.25918474 130 292 C136.50530281 306.60381215 142 322.9601778 142 339 C46.3 339 -49.4 339 -148 339 C-142.51038608 297.82789559 -124.95882309 263.02346097 -91.64306641 237.22900391 C-75.27035906 224.98231612 -51.80628199 211 -31 211 C-31 206.05 -31 201.1 -31 196 C-32.98 195.34 -34.96 194.68 -37 194 C-57.83322522 182.72444632 -74.5798121 164.13894853 -85 143 C-85 142.34 -85 141.68 -85 141 C-85.88171875 140.73960937 -86.7634375 140.47921875 -87.671875 140.2109375 C-99.63204189 135.85923359 -109.04601988 124.88794882 -115 113.9375 C-117.34067192 108.7847134 -118.38388795 103.60408768 -119 98 C-119.12568359 96.93265625 -119.12568359 96.93265625 -119.25390625 95.84375 C-119.59045182 90.37217039 -117.91714306 85.56478867 -115 81 C-112.75454358 78.83197311 -111.54278067 78.06167962 -108.421875 77.70703125 C-107.54015625 77.74183594 -106.6584375 77.77664062 -105.75 77.8125 C-104.41195312 77.85310547 -104.41195312 77.85310547 -103.046875 77.89453125 C-102.37140625 77.92933594 -101.6959375 77.96414062 -101 78 C-100.75121094 77.154375 -100.50242188 76.30875 -100.24609375 75.4375 C-92.4337694 53.88626042 -71.503106 30.37181103 -52 19 C-51.44151367 18.67209473 -50.88302734 18.34418945 -50.30761719 18.00634766 C-47.28763357 16.23923403 -44.25239409 14.50637967 -41.19921875 12.796875 C-39.31162772 11.73668956 -37.44347683 10.63784736 -35.62890625 9.45703125 C-31.98935862 7.43986741 -28.19846158 6.21976618 -24.25 4.9375 C-23.10917969 4.55368164 -23.10917969 4.55368164 -21.9453125 4.16210938 C-14.74035971 1.78691731 -7.65871717 -0.39275473 0 0 Z " fill="#FAD4BF" transform="translate(253,161)"/>
<path d="M0 0 C0.29390625 1.4540625 0.29390625 1.4540625 0.59375 2.9375 C3.66476237 17.0783993 9.16993583 30.17635946 19 41 C19.63035156 41.721875 20.26070313 42.44375 20.91015625 43.1875 C33.87158195 57.14223122 51.94104098 66.47528328 71 68 C71.63566895 68.05446289 72.27133789 68.10892578 72.92626953 68.16503906 C95.01230905 69.81565259 116.70669929 61.85883902 133.421875 47.49169922 C147.21210974 34.87501001 153.49032199 18.3810461 159 1 C163.663396 1.49133747 166.62014696 3.59246665 170.1875 6.4375 C170.75629883 6.88488525 171.32509766 7.33227051 171.91113281 7.79321289 C199.18494719 29.63291478 219.63539672 64.02574481 224 99 C224 101.31 224 103.62 224 106 C128.3 106 32.6 106 -66 106 C-60.38267001 63.87002508 -42.15203225 29.11902329 -8 3 C-3.51956522 0 -3.51956522 0 0 0 Z " fill="#FEFEFE" transform="translate(171,394)"/>
<path d="M0 0 C0.69416016 -0.020625 1.38832031 -0.04125 2.10351562 -0.0625 C7.50954832 -0.10357147 10.3886405 1.28933885 14.5625 4.5 C17.30254872 7.98733473 18.9375 11.82326601 18.9375 16.25 C19.60579834 16.22905273 20.27409668 16.20810547 20.96264648 16.18652344 C48.3894946 15.44303163 71.65060607 19.95821128 92.3046875 39.46484375 C108.44473346 56.53880928 115.19200489 78.30937478 115.0625 101.5 C115.06056641 102.35174805 115.05863281 103.20349609 115.05664062 104.08105469 C114.99470285 113.48527393 114.49665557 122.86417437 113.9375 132.25 C112.9475 132.58 111.9575 132.91 110.9375 133.25 C109.46909883 135.79951047 109.46909883 135.79951047 108.25 138.8125 C107.81300781 139.82441406 107.37601563 140.83632812 106.92578125 141.87890625 C106.59964844 142.66136719 106.27351562 143.44382813 105.9375 144.25 C80.93817 144.79477959 56.43295093 140.74537071 37.50244141 122.89697266 C30.93719828 116.38472846 25.48652057 109.31852596 20.9375 101.25 C20.48890625 100.46367187 20.0403125 99.67734375 19.578125 98.8671875 C14.2541104 88.90930835 11.23151082 77.99291548 8.625 67.0625 C8.45347412 66.34376709 8.28194824 65.62503418 8.10522461 64.88452148 C7.34454182 61.5520253 6.9375 58.69071883 6.9375 55.25 C-28.64806341 61.66706881 -59.04823951 79.92129999 -80.2890625 109.48144531 C-85.48090922 117.03945199 -89.78586574 125.15129782 -94.0625 133.25 C-95.7125 132.92 -97.3625 132.59 -99.0625 132.25 C-99.13765987 126.41913549 -99.19157012 120.58856393 -99.22729492 114.75732422 C-99.24221574 112.78103716 -99.26255972 110.80478221 -99.28881836 108.82861328 C-99.56208813 87.7064678 -97.31821439 67.67100625 -86.0625 49.25 C-85.59972656 48.48042969 -85.13695312 47.71085937 -84.66015625 46.91796875 C-68.60101611 21.51694653 -42.33206553 8.51755715 -14.0625 1.25 C-9.37858208 0.26235569 -4.77445363 0.03566352 0 0 Z " fill="#24255D" transform="translate(246.0625,105.75)"/>
<path d="M0 0 C0.99 1.051875 0.99 1.051875 2 2.125 C2.99036077 3.09329145 3.99146867 4.05064899 5 5 C5.83724609 5.79083984 5.83724609 5.79083984 6.69140625 6.59765625 C12.29598727 11.35979503 17.78976684 12.30301079 25 13 C19.65986018 19.8463331 13.41026424 25.30618604 5 28 C3.02 28 1.04 28 -1 28 C-1 63.64 -1 99.28 -1 136 C-1.66 136 -2.32 136 -3 136 C-4.375 134.56640625 -4.375 134.56640625 -6 132.5625 C-24.9786824 110.44010948 -54.38507435 94.76915428 -83 90 C-83 85.38 -83 80.76 -83 76 C-81.98421875 75.52691406 -80.9684375 75.05382812 -79.921875 74.56640625 C-57.97339951 64.12380638 -38.59786245 47.18999181 -28 24.9375 C-25.31464425 19.69796968 -22.11165611 17.98655711 -16.88671875 15.52734375 C-10.04380563 11.90680379 -4.68374309 6.07072851 0 0 Z " fill="#24265D" transform="translate(361,282)"/>
<path d="M0 0 C0.66 0 1.32 0 2 0 C2.84884766 1.10988281 2.84884766 1.10988281 3.71484375 2.2421875 C6.35939184 5.43372759 8.98715816 7.05056958 12.5625 9.125 C19.17252058 12.98147058 22.08366118 15.88251777 25.6875 22.5625 C29.23213682 28.91980899 33.19769749 34.50919533 38 40 C38.82242188 40.96679688 39.64484375 41.93359375 40.4921875 42.9296875 C50.40793043 54.35295917 61.55269246 62.20245992 75 69 C75 73.95 75 78.9 75 84 C73.64390625 84.32871094 72.2878125 84.65742188 70.890625 84.99609375 C53.43810792 89.39120324 36.7158487 95.3871683 22 106 C21.00742188 106.71027344 20.01484375 107.42054688 18.9921875 108.15234375 C13.26958186 112.34748698 7.85520092 116.75005753 2.64453125 121.56640625 C1 123 1 123 0 123 C0 82.41 0 41.82 0 0 Z " fill="#25265E" transform="translate(147,288)"/>
<path d="M0 0 C1.25103516 0.39832031 1.25103516 0.39832031 2.52734375 0.8046875 C21.44690471 6.74278567 36.57310279 6.68925105 56 2 C56 4.31 56 6.62 56 9 C43.19483379 16.1413427 29.43128699 18.23795844 15.20581055 14.3515625 C3.83917635 11.02390724 3.83917635 11.02390724 0 8 C-0.66913403 5.20034321 -0.23868841 2.91199859 0 0 Z " fill="#F8A39F" transform="translate(222,357)"/>
<path d="M0 0 C2.125 0.375 2.125 0.375 4 1 C4.10546143 1.6798999 4.21092285 2.3597998 4.31958008 3.06030273 C4.80926727 6.18733939 5.31080063 9.312369 5.8125 12.4375 C5.97814453 13.50677734 6.14378906 14.57605469 6.31445312 15.67773438 C7.2456641 21.42313038 8.38419887 26.75464446 10.51831055 32.17993164 C11 34 11 34 10 37 C2.82967235 31.30643958 -2.93821184 25.18432907 -5 16 C-5.54599383 10.52056193 -5.54136782 6.494813 -2 2 C-1.34 1.34 -0.68 0.68 0 0 Z " fill="#F8A39F" transform="translate(149,249)"/>
<path d="M0 0 C6.875 3.75 6.875 3.75 8 6 C8.90270892 16.15547539 7.07071689 24.193823 0.6953125 32.203125 C-1.92566915 34.98112398 -4.78765302 36.94409793 -8 39 C-6.90569848 33.710876 -5.58537255 28.60179193 -4 23.4375 C-1.73385317 15.70046886 -0.78908217 7.99464826 0 0 Z " fill="#F8A49F" transform="translate(352,248)"/>
</svg>
