<svg xmlns="http://www.w3.org/2000/svg" xmlns:xlink="http://www.w3.org/1999/xlink" width="1000" zoomAndPan="magnify" viewBox="0 0 750 187.499995" height="250" preserveAspectRatio="xMidYMid meet" version="1.0"><defs><g/><clipPath id="5cbd821a7e"><path d="M 663 29 L 741.886719 29 L 741.886719 85 L 663 85 Z M 663 29 " clip-rule="nonzero"/></clipPath><clipPath id="a5a4c82661"><path d="M 660 3.480469 L 716 3.480469 L 716 82 L 660 82 Z M 660 3.480469 " clip-rule="nonzero"/></clipPath><clipPath id="238b87a745"><path d="M 576.578125 10 L 733 10 L 733 167.292969 L 576.578125 167.292969 Z M 576.578125 10 " clip-rule="nonzero"/></clipPath><clipPath id="b7556e3e53"><path d="M 662 41 L 725.542969 41 L 725.542969 86 L 662 86 Z M 662 41 " clip-rule="nonzero"/></clipPath><clipPath id="e7aeea7c42"><path d="M 659 19.753906 L 705 19.753906 L 705 84 L 659 84 Z M 659 19.753906 " clip-rule="nonzero"/></clipPath><clipPath id="0bc7f66ffc"><path d="M 591 25 L 719 25 L 719 152.902344 L 591 152.902344 Z M 591 25 " clip-rule="nonzero"/></clipPath><clipPath id="d8e069b19d"><path d="M 655.539062 19.753906 L 660.570312 19.753906 L 660.570312 86.054688 L 655.539062 86.054688 Z M 655.539062 19.753906 " clip-rule="nonzero"/></clipPath><clipPath id="e3cb6d69e7"><path d="M 659.292969 84.296875 L 743.984375 84.296875 L 743.984375 88.289062 L 659.292969 88.289062 Z M 659.292969 84.296875 " clip-rule="nonzero"/></clipPath><clipPath id="d884a93451"><path d="M 655 24 L 720 24 L 720 90 L 655 90 Z M 655 24 " clip-rule="nonzero"/></clipPath><clipPath id="998849a08a"><path d="M 660.035156 89.289062 L 655.535156 84.789062 L 715.425781 24.898438 L 719.925781 29.402344 Z M 660.035156 89.289062 " clip-rule="nonzero"/></clipPath><clipPath id="92594936b1"><path d="M 660.035156 89.289062 L 655.535156 84.789062 L 715.421875 24.902344 L 719.921875 29.402344 Z M 660.035156 89.289062 " clip-rule="nonzero"/></clipPath><clipPath id="cb0f8da388"><path d="M 634.039062 86.457031 L 718.734375 86.457031 L 718.734375 90.496094 L 634.039062 90.496094 Z M 634.039062 86.457031 " clip-rule="nonzero"/></clipPath><clipPath id="7b5d73f583"><path d="M 653.542969 26.058594 L 657.535156 26.058594 L 657.535156 110.753906 L 653.542969 110.753906 Z M 653.542969 26.058594 " clip-rule="nonzero"/></clipPath></defs><g fill="#ffffff" fill-opacity="1"><g transform="translate(6.012569, 167.60995)"><g><path d="M 38.921875 -78.1875 C 44.359375 -78.1875 49.421875 -77.171875 54.109375 -75.140625 C 58.804688 -73.109375 62.921875 -70.328125 66.453125 -66.796875 C 69.984375 -63.265625 72.757812 -59.148438 74.78125 -54.453125 C 76.8125 -49.765625 77.828125 -44.703125 77.828125 -39.265625 L 77.828125 -0.171875 L 38.921875 -0.171875 C 33.585938 -0.171875 28.546875 -1.179688 23.796875 -3.203125 C 19.046875 -5.234375 14.875 -8.046875 11.28125 -11.640625 C 7.695312 -15.234375 4.890625 -19.398438 2.859375 -24.140625 C 0.835938 -28.890625 -0.171875 -33.929688 -0.171875 -39.265625 C -0.171875 -44.703125 0.835938 -49.765625 2.859375 -54.453125 C 4.890625 -59.148438 7.695312 -63.265625 11.28125 -66.796875 C 14.875 -70.328125 19.046875 -73.109375 23.796875 -75.140625 C 28.546875 -77.171875 33.585938 -78.1875 38.921875 -78.1875 Z M 62.375 -15.640625 L 62.375 -39.265625 C 62.375 -42.503906 61.765625 -45.539062 60.546875 -48.375 C 59.328125 -51.21875 57.644531 -53.707031 55.5 -55.84375 C 53.363281 -57.988281 50.875 -59.671875 48.03125 -60.890625 C 45.195312 -62.109375 42.160156 -62.71875 38.921875 -62.71875 C 35.671875 -62.71875 32.597656 -62.109375 29.703125 -60.890625 C 26.804688 -59.671875 24.285156 -57.988281 22.140625 -55.84375 C 20.003906 -53.707031 18.328125 -51.21875 17.109375 -48.375 C 15.890625 -45.539062 15.28125 -42.503906 15.28125 -39.265625 C 15.28125 -36.023438 15.890625 -32.957031 17.109375 -30.0625 C 18.328125 -27.164062 20.003906 -24.644531 22.140625 -22.5 C 24.285156 -20.351562 26.804688 -18.671875 29.703125 -17.453125 C 32.597656 -16.242188 35.671875 -15.640625 38.921875 -15.640625 Z M 62.375 -15.640625 "/></g></g></g><g fill="#ffffff" fill-opacity="1"><g transform="translate(88.361085, 167.60995)"><g><path d="M 78.1875 -109.453125 L 78.1875 -39.265625 C 78.1875 -33.929688 77.171875 -28.890625 75.140625 -24.140625 C 73.109375 -19.398438 70.328125 -15.234375 66.796875 -11.640625 C 63.265625 -8.046875 59.125 -5.234375 54.375 -3.203125 C 49.625 -1.179688 44.585938 -0.171875 39.265625 -0.171875 C 33.929688 -0.171875 28.890625 -1.179688 24.140625 -3.203125 C 19.398438 -5.234375 15.234375 -8.046875 11.640625 -11.640625 C 8.046875 -15.234375 5.234375 -19.398438 3.203125 -24.140625 C 1.179688 -28.890625 0.171875 -33.929688 0.171875 -39.265625 C 0.171875 -44.703125 1.179688 -49.765625 3.203125 -54.453125 C 5.234375 -59.148438 8.046875 -63.265625 11.640625 -66.796875 C 15.234375 -70.328125 19.398438 -73.109375 24.140625 -75.140625 C 28.890625 -77.171875 33.929688 -78.1875 39.265625 -78.1875 L 62.71875 -78.1875 L 62.71875 -109.453125 Z M 39.265625 -15.640625 C 42.503906 -15.640625 45.539062 -16.242188 48.375 -17.453125 C 51.21875 -18.671875 53.707031 -20.351562 55.84375 -22.5 C 57.988281 -24.644531 59.671875 -27.164062 60.890625 -30.0625 C 62.109375 -32.957031 62.71875 -36.023438 62.71875 -39.265625 L 62.71875 -62.71875 L 39.265625 -62.71875 C 36.023438 -62.71875 32.957031 -62.109375 30.0625 -60.890625 C 27.164062 -59.671875 24.644531 -57.988281 22.5 -55.84375 C 20.351562 -53.707031 18.671875 -51.21875 17.453125 -48.375 C 16.242188 -45.539062 15.640625 -42.503906 15.640625 -39.265625 C 15.640625 -36.023438 16.242188 -32.957031 17.453125 -30.0625 C 18.671875 -27.164062 20.351562 -24.644531 22.5 -22.5 C 24.644531 -20.351562 27.164062 -18.671875 30.0625 -17.453125 C 32.957031 -16.242188 36.023438 -15.640625 39.265625 -15.640625 Z M 39.265625 -15.640625 "/></g></g></g><g fill="#ffffff" fill-opacity="1"><g transform="translate(171.925713, 167.60995)"><g><path d="M 101.28125 -78.1875 C 106.726562 -78.1875 111.796875 -77.171875 116.484375 -75.140625 C 121.179688 -73.109375 125.320312 -70.328125 128.90625 -66.796875 C 132.5 -63.265625 135.304688 -59.148438 137.328125 -54.453125 C 139.359375 -49.765625 140.375 -44.703125 140.375 -39.265625 L 140.375 -0.171875 L 124.921875 -0.171875 L 124.921875 -39.265625 C 124.921875 -42.503906 124.3125 -45.539062 123.09375 -48.375 C 121.875 -51.21875 120.191406 -53.707031 118.046875 -55.84375 C 115.910156 -57.988281 113.394531 -59.671875 110.5 -60.890625 C 107.601562 -62.109375 104.53125 -62.71875 101.28125 -62.71875 C 98.039062 -62.71875 95 -62.109375 92.15625 -60.890625 C 89.320312 -59.671875 86.832031 -57.988281 84.6875 -55.84375 C 82.550781 -53.707031 80.875 -51.21875 79.65625 -48.375 C 78.4375 -45.539062 77.828125 -42.503906 77.828125 -39.265625 L 77.828125 -0.171875 L 62.375 -0.171875 L 62.375 -39.265625 C 62.375 -42.503906 61.765625 -45.539062 60.546875 -48.375 C 59.328125 -51.21875 57.644531 -53.707031 55.5 -55.84375 C 53.363281 -57.988281 50.847656 -59.671875 47.953125 -60.890625 C 45.054688 -62.109375 41.988281 -62.71875 38.75 -62.71875 C 35.5 -62.71875 32.453125 -62.109375 29.609375 -60.890625 C 26.773438 -59.671875 24.285156 -57.988281 22.140625 -55.84375 C 20.003906 -53.707031 18.328125 -51.21875 17.109375 -48.375 C 15.890625 -45.539062 15.28125 -42.503906 15.28125 -39.265625 L 15.28125 -0.171875 L -0.171875 -0.171875 L -0.171875 -39.265625 C -0.171875 -44.703125 0.835938 -49.765625 2.859375 -54.453125 C 4.890625 -59.148438 7.671875 -63.265625 11.203125 -66.796875 C 14.734375 -70.328125 18.875 -73.109375 23.625 -75.140625 C 28.375 -77.171875 33.414062 -78.1875 38.75 -78.1875 C 45.226562 -78.1875 51.160156 -76.765625 56.546875 -73.921875 C 61.929688 -71.085938 66.421875 -67.238281 70.015625 -62.375 C 73.609375 -67.238281 78.125 -71.085938 83.5625 -73.921875 C 89.007812 -76.765625 94.914062 -78.1875 101.28125 -78.1875 Z M 101.28125 -78.1875 "/></g></g></g><g fill="#ffffff" fill-opacity="1"><g transform="translate(317.85979, 167.60995)"><g><path d="M 101.28125 -78.1875 C 106.726562 -78.1875 111.796875 -77.171875 116.484375 -75.140625 C 121.179688 -73.109375 125.320312 -70.328125 128.90625 -66.796875 C 132.5 -63.265625 135.304688 -59.148438 137.328125 -54.453125 C 139.359375 -49.765625 140.375 -44.703125 140.375 -39.265625 L 140.375 -0.171875 L 124.921875 -0.171875 L 124.921875 -39.265625 C 124.921875 -42.503906 124.3125 -45.539062 123.09375 -48.375 C 121.875 -51.21875 120.191406 -53.707031 118.046875 -55.84375 C 115.910156 -57.988281 113.394531 -59.671875 110.5 -60.890625 C 107.601562 -62.109375 104.53125 -62.71875 101.28125 -62.71875 C 98.039062 -62.71875 95 -62.109375 92.15625 -60.890625 C 89.320312 -59.671875 86.832031 -57.988281 84.6875 -55.84375 C 82.550781 -53.707031 80.875 -51.21875 79.65625 -48.375 C 78.4375 -45.539062 77.828125 -42.503906 77.828125 -39.265625 L 77.828125 -0.171875 L 62.375 -0.171875 L 62.375 -39.265625 C 62.375 -42.503906 61.765625 -45.539062 60.546875 -48.375 C 59.328125 -51.21875 57.644531 -53.707031 55.5 -55.84375 C 53.363281 -57.988281 50.847656 -59.671875 47.953125 -60.890625 C 45.054688 -62.109375 41.988281 -62.71875 38.75 -62.71875 C 35.5 -62.71875 32.453125 -62.109375 29.609375 -60.890625 C 26.773438 -59.671875 24.285156 -57.988281 22.140625 -55.84375 C 20.003906 -53.707031 18.328125 -51.21875 17.109375 -48.375 C 15.890625 -45.539062 15.28125 -42.503906 15.28125 -39.265625 L 15.28125 -0.171875 L -0.171875 -0.171875 L -0.171875 -39.265625 C -0.171875 -44.703125 0.835938 -49.765625 2.859375 -54.453125 C 4.890625 -59.148438 7.671875 -63.265625 11.203125 -66.796875 C 14.734375 -70.328125 18.875 -73.109375 23.625 -75.140625 C 28.375 -77.171875 33.414062 -78.1875 38.75 -78.1875 C 45.226562 -78.1875 51.160156 -76.765625 56.546875 -73.921875 C 61.929688 -71.085938 66.421875 -67.238281 70.015625 -62.375 C 73.609375 -67.238281 78.125 -71.085938 83.5625 -73.921875 C 89.007812 -76.765625 94.914062 -78.1875 101.28125 -78.1875 Z M 101.28125 -78.1875 "/></g></g></g><g fill="#ffffff" fill-opacity="1"><g transform="translate(463.793867, 167.60995)"><g><path d="M 0.171875 -78.1875 L 15.46875 -78.1875 L 15.46875 -0.171875 L 0.171875 -0.171875 Z M 0.171875 -78.1875 "/></g></g></g><g fill="#ffffff" fill-opacity="1"><g transform="translate(484.294143, 167.60995)"><g><path d="M 76.4375 -78 C 69.957031 -69.195312 63.878906 -60.742188 58.203125 -52.640625 C 55.765625 -49.160156 53.269531 -45.65625 50.71875 -42.125 C 48.175781 -38.59375 45.742188 -35.175781 43.421875 -31.875 C 41.109375 -28.570312 38.910156 -25.503906 36.828125 -22.671875 C 34.742188 -19.835938 33.007812 -17.4375 31.625 -15.46875 L 78 -15.46875 L 78 0 L 1.390625 0 C 7.753906 -8.800781 13.832031 -17.253906 19.625 -25.359375 C 22.0625 -28.835938 24.582031 -32.34375 27.1875 -35.875 C 29.789062 -39.40625 32.25 -42.820312 34.5625 -46.125 C 36.882812 -49.425781 39.085938 -52.492188 41.171875 -55.328125 C 43.253906 -58.171875 44.992188 -60.578125 46.390625 -62.546875 L 0 -62.546875 L 0 -78 Z M 76.4375 -78 "/></g></g></g><g clip-path="url(#5cbd821a7e)"><path fill="#ffffff" d="M 718.667969 29.769531 L 663.929688 84.503906 L 741.5 84.503906 C 741.390625 63.128906 732.691406 43.789062 718.667969 29.769531 Z M 718.667969 29.769531 " fill-opacity="1" fill-rule="nonzero"/></g><g clip-path="url(#a5a4c82661)"><path fill="#ffffff" d="M 660.472656 3.480469 L 660.472656 81.089844 L 660.515625 81.089844 L 715.253906 26.351562 C 701.222656 12.3125 681.867188 3.585938 660.472656 3.480469 Z M 660.472656 3.480469 " fill-opacity="1" fill-rule="nonzero"/></g><g clip-path="url(#238b87a745)"><path fill="#ffffff" d="M 655.144531 88.589844 L 655.144531 10.976562 C 655.007812 10.976562 654.867188 10.972656 654.730469 10.972656 C 611.636719 10.972656 576.699219 45.90625 576.699219 89.003906 C 576.699219 132.097656 611.636719 167.035156 654.730469 167.035156 C 697.828125 167.035156 732.761719 132.097656 732.761719 89.003906 C 732.761719 88.863281 732.757812 88.726562 732.757812 88.589844 Z M 655.144531 88.589844 " fill-opacity="1" fill-rule="nonzero"/></g><g clip-path="url(#b7556e3e53)"><path fill="#ffffff" d="M 706.804688 41.199219 L 662.152344 85.847656 L 725.425781 85.847656 C 725.339844 68.414062 718.242188 52.636719 706.804688 41.199219 Z M 706.804688 41.199219 " fill-opacity="1" fill-rule="nonzero"/></g><g clip-path="url(#e7aeea7c42)"><path fill="#ffffff" d="M 659.332031 19.753906 L 659.332031 83.0625 L 659.367188 83.0625 L 704.015625 38.414062 C 692.574219 26.960938 676.785156 19.84375 659.332031 19.753906 Z M 659.332031 19.753906 " fill-opacity="1" fill-rule="nonzero"/></g><g clip-path="url(#0bc7f66ffc)"><path fill="#000000" d="M 654.988281 89.179688 L 654.988281 25.871094 C 654.875 25.871094 654.761719 25.867188 654.648438 25.867188 C 619.496094 25.867188 591 54.363281 591 89.519531 C 591 124.671875 619.496094 153.167969 654.648438 153.167969 C 689.804688 153.167969 718.300781 124.671875 718.300781 89.519531 C 718.300781 89.40625 718.296875 89.292969 718.296875 89.179688 Z M 654.988281 89.179688 " fill-opacity="1" fill-rule="nonzero"/></g><g clip-path="url(#d8e069b19d)"><path fill="#000000" d="M 655.539062 19.753906 L 660.570312 19.753906 L 660.570312 86.058594 L 655.539062 86.058594 Z M 655.539062 19.753906 " fill-opacity="1" fill-rule="nonzero"/></g><g clip-path="url(#e3cb6d69e7)"><path fill="#000000" d="M 659.292969 88.289062 L 659.292969 84.296875 L 743.988281 84.296875 L 743.988281 88.289062 Z M 659.292969 88.289062 " fill-opacity="1" fill-rule="nonzero"/></g><g clip-path="url(#d884a93451)"><g clip-path="url(#998849a08a)"><g clip-path="url(#92594936b1)"><path fill="#000000" d="M 660.035156 89.289062 L 655.535156 84.789062 L 715.421875 24.898438 L 719.925781 29.402344 Z M 660.035156 89.289062 " fill-opacity="1" fill-rule="nonzero"/></g></g></g><g clip-path="url(#cb0f8da388)"><path fill="#000000" d="M 634.039062 90.496094 L 634.039062 86.457031 L 718.726562 86.457031 L 718.726562 90.496094 Z M 634.039062 90.496094 " fill-opacity="1" fill-rule="nonzero"/></g><g clip-path="url(#7b5d73f583)"><path fill="#000000" d="M 653.542969 26.058594 L 657.535156 26.058594 L 657.535156 110.757812 L 653.542969 110.757812 Z M 653.542969 26.058594 " fill-opacity="1" fill-rule="nonzero"/></g></svg>