<?xml version="1.0" encoding="UTF-8"?>
<svg version="1.1" xmlns="http://www.w3.org/2000/svg" width="1000" height="250">
<path d="M0 0 C330 0 660 0 1000 0 C1000 82.5 1000 165 1000 250 C670 250 340 250 0 250 C0 167.5 0 85 0 0 Z " fill="#FEFEFE" transform="translate(0,0)"/>
<path d="M0 0 C6.6 0 13.2 0 20 0 C20.09059215 13.22227279 20.16388392 26.44433735 20.20724869 39.66685104 C20.22806808 45.80747822 20.2562825 51.9478809 20.30175781 58.08837891 C20.34541692 64.02118366 20.36917953 69.9537733 20.37950897 75.88672638 C20.38686439 78.14320508 20.40122731 80.39967285 20.42292023 82.65605927 C20.6321387 105.33250479 20.6321387 105.33250479 16 115 C15.62184143 115.81789001 15.24368286 116.63578003 14.85406494 117.47845459 C8.21267814 131.16558805 -3.17186292 138.86486189 -16.984375 144.01953125 C-30.52488616 148.42195133 -44.15552966 146.14444291 -56.6875 139.8125 C-69.53304352 132.08160409 -77.61710664 121.16192961 -82 107 C-82.33 106.01 -82.66 105.02 -83 104 C-84.50123293 87.23559886 -82.77788054 74.07382115 -72.22265625 60.5 C-64.00473107 51.25663952 -51.45003756 42.82427434 -38.79429626 41.82601929 C-36.30971353 41.76997304 -33.83266917 41.77475468 -31.34765625 41.8046875 C-30.54871948 41.80670166 -29.74978271 41.80871582 -28.92663574 41.81079102 C-25.97186455 41.82117291 -23.01717587 41.84909486 -20.0625 41.875 C-13.441875 41.91625 -6.82125 41.9575 0 42 C0 28.14 0 14.28 0 0 Z " fill="#0D1F41" transform="translate(202,85)"/>
<path d="M0 0 C0.80824219 0.25652344 1.61648437 0.51304687 2.44921875 0.77734375 C8.93368506 3.09109666 13.85051474 6.47615313 19 11 C19.92619141 11.78503906 19.92619141 11.78503906 20.87109375 12.5859375 C29.84506959 20.78043659 35.31373735 32.25732557 36.26199341 44.337677 C36.34474822 48.03477616 36.33778606 51.720227 36.29296875 55.41796875 C36.28735795 56.76987736 36.28309489 58.12179216 36.28010559 59.47370911 C36.26877329 62.99351511 36.23941002 66.51293643 36.20599365 70.03259277 C36.17503865 73.63951416 36.16154652 77.24649906 36.14648438 80.85351562 C36.11452606 87.90249898 36.06347482 94.95122408 36 102 C28.53200539 102.0933903 21.06407263 102.16411032 13.59562397 102.20724869 C10.12628105 102.22797122 6.65734263 102.25600043 3.18823242 102.30175781 C-0.81595352 102.35423186 -4.8197262 102.37307151 -8.82421875 102.390625 C-10.65940315 102.42159271 -10.65940315 102.42159271 -12.53166199 102.45318604 C-27.81727964 102.45709892 -41.507821 97.43041403 -52.75 87 C-58.48380443 80.97950535 -61.84161956 74.68449257 -65 67 C-65.35964844 66.14664063 -65.71929687 65.29328125 -66.08984375 64.4140625 C-70.27155906 52.81317486 -68.72301071 40.15464001 -64 29 C-56.82892532 14.32059713 -46.53337804 5.58976078 -31.2890625 -0.2734375 C-21.5523043 -3.36394437 -9.71478974 -3.15415251 0 0 Z " fill="#0E2042" transform="translate(76,129)"/>
<path d="M0 0 C0 6.6 0 13.2 0 20 C-4.455 20.5878125 -4.455 20.5878125 -9 21.1875 C-29.49782416 24.18550952 -46.23891955 31.02917063 -61 46 C-61.69480469 46.68449219 -62.38960937 47.36898437 -63.10546875 48.07421875 C-79.84087464 65.58651002 -84.65782418 87.6838291 -84.3046875 111.1171875 C-83.74136459 128.41259752 -76.56400867 146.04831029 -65 159 C-64.41992188 159.7321875 -63.83984375 160.464375 -63.2421875 161.21875 C-52.92540301 173.823357 -37.57229607 181.92686355 -22 186 C-21.00742187 186.34933594 -20.01484375 186.69867188 -18.9921875 187.05859375 C-13.59299325 188.59831828 -8.00666416 188.33998926 -2.4375 188.3125 C-0.69303589 188.30512817 -0.69303589 188.30512817 1.08666992 188.29760742 C9.4522419 188.18353942 16.9897713 187.56618222 25 185 C26.59908203 184.50693359 26.59908203 184.50693359 28.23046875 184.00390625 C48.6156246 176.96530405 65.00783091 162.21748125 74.75 143.0625 C80.02818606 131.96508375 82.52271539 121.9661028 83.60546875 109.80859375 C84 106 84 106 85 103 C91.27 103 97.54 103 104 103 C102.73458857 129.36273806 96.27668304 153.14140931 78 173 C77.52965332 173.51804199 77.05930664 174.03608398 76.57470703 174.56982422 C59.15550846 193.56797248 34.83004817 206.72285366 8.67675781 208.12451172 C-23.31338843 209.11459506 -48.93925135 201.1860784 -72.80859375 179.44140625 C-92.10462364 161.00178823 -103.34398023 135.78620183 -104.37109375 109.15234375 C-104.73881335 87.56809282 -101.68786101 70.74470136 -91 52 C-90.44441406 51.00484375 -89.88882813 50.0096875 -89.31640625 48.984375 C-75.68494031 26.10181827 -51.89762693 9.45423427 -26.34375 2.5546875 C-25.5703125 2.37164063 -24.796875 2.18859375 -24 2 C-23.1440625 1.79632812 -22.288125 1.59265625 -21.40625 1.3828125 C-14.21293842 -0.1261293 -7.33896302 -0.15782716 0 0 Z " fill="#0E2142" transform="translate(873,22)"/>
<path d="M0 0 C4.27566304 3.27588113 7.85881061 6.61382701 11 11 C11.52207031 10.43152344 12.04414062 9.86304688 12.58203125 9.27734375 C22.69536895 -1.33191944 34.31822968 -8.89690718 49.29199219 -9.41967773 C65.64041786 -9.5516365 78.79853325 -4.67375069 90.77734375 6.640625 C94.07198829 10.13792782 96.63216866 13.83023412 99 18 C99.38929688 18.680625 99.77859375 19.36125 100.1796875 20.0625 C105.09186245 29.24145466 105.27706578 37.88454479 105.1953125 48.125 C105.1915756 49.48119904 105.18873183 50.8374008 105.18673706 52.19360352 C105.1791538 55.73801315 105.15955195 59.28225508 105.1373291 62.82659912 C105.11675534 66.45338677 105.10771085 70.08020189 105.09765625 73.70703125 C105.07630019 80.80476208 105.0411623 87.90235234 105 95 C98.07 95 91.14 95 84 95 C83.9906543 93.26508301 83.98130859 91.53016602 83.97167969 89.74267578 C83.93598769 83.97497997 83.88208619 78.20760423 83.81609726 72.44018745 C83.77678706 68.94741209 83.74451908 65.4548826 83.72900391 61.96191406 C83.71079572 57.93514638 83.66077383 53.90929439 83.609375 49.8828125 C83.60753204 48.02440231 83.60753204 48.02440231 83.60565186 46.12844849 C83.43077585 35.65937751 81.19358089 27.41977966 73.93359375 19.69140625 C65.91587675 12.67792855 56.13269946 12.21186773 45.94873047 12.78222656 C39.41902801 13.51193022 34.56919127 17.07489727 30.125 21.6875 C23.36191936 30.45656101 22.40137242 39.04527007 22.390625 49.8828125 C22.37408875 51.17822968 22.35755249 52.47364685 22.34051514 53.80831909 C22.29720782 57.21782399 22.27692523 60.62707347 22.26177979 64.0368042 C22.2420748 67.52989583 22.20012098 71.02271682 22.16015625 74.515625 C22.08525229 81.34367391 22.03678321 88.17164025 22 95 C15.07 95 8.14 95 1 95 C0.99589111 93.23479004 0.99178223 91.46958008 0.98754883 89.65087891 C0.96806209 83.78337438 0.9256125 77.91627046 0.86790943 72.04903603 C0.8337866 68.49566018 0.80855269 64.94270751 0.80444336 61.38916016 C0.79930035 57.29278675 0.75403937 53.1976711 0.70703125 49.1015625 C0.7109639 47.8407486 0.71489655 46.57993469 0.71894836 45.28091431 C0.56157194 35.66283871 -1.95947132 29.60422914 -7.1875 21.6875 C-15.05859167 14.16623462 -24.41356566 12.44177999 -34.90625 12.66015625 C-42.13147751 13.05953236 -47.45775222 16.39425835 -52.8125 21.0625 C-60.44665613 29.63750784 -61.74307583 39.79899491 -61.70703125 50.859375 C-61.72215256 52.12976624 -61.73727386 53.40015747 -61.75285339 54.70904541 C-61.78824898 58.04329145 -61.80286483 61.37623865 -61.80688477 64.71057129 C-61.81629996 68.13012837 -61.85376429 71.54937496 -61.88867188 74.96875 C-61.95126145 81.64589939 -61.98380501 88.32258346 -62 95 C-68.6 95 -75.2 95 -82 95 C-82.06824484 87.53191417 -82.12308328 80.06394751 -82.15543652 72.59562397 C-82.170978 69.12637397 -82.19200024 65.65735152 -82.22631836 62.18823242 C-82.26567374 58.18406202 -82.27980412 54.18012412 -82.29296875 50.17578125 C-82.30845261 48.95232498 -82.32393646 47.72886871 -82.33988953 46.46833801 C-82.34300702 30.23040905 -78.51078028 18.18423111 -67.37890625 6.35546875 C-48.95808961 -11.88386202 -21.71403021 -14.52104664 0 0 Z " fill="#0E2142" transform="translate(506,136)"/>
<path d="M0 0 C2.44421427 2.23715376 4.75681383 4.56206776 7 7 C10.77024649 5.74325117 12.22180196 3.8413389 15 1 C24.15687521 -8.13290434 35.69563073 -12.03446589 48.4375 -12.25 C54.23920457 -12.15809181 59.4764542 -11.78278624 65 -10 C65.7734375 -9.76667969 66.546875 -9.53335938 67.34375 -9.29296875 C79.36664207 -5.12680836 90.00934856 3.7221777 96 15 C100.57186236 24.52263463 101.69507353 32.8067212 101.48828125 43.26953125 C101.47892571 44.68583409 101.47182261 46.10215341 101.46684265 47.51847839 C101.44798732 51.19966367 101.39908159 54.87982145 101.34332275 58.56060791 C101.29165825 62.33518585 101.26922923 66.10993407 101.24414062 69.88476562 C101.19093342 77.25702735 101.10318372 84.62823732 101 92 C94.4 92 87.8 92 81 92 C80.9906543 90.25984619 80.98130859 88.51969238 80.97167969 86.72680664 C80.93601374 80.9471297 80.88212834 75.16777309 80.81609726 69.38837528 C80.77675691 65.88772396 80.74450345 62.3873191 80.72900391 58.88647461 C80.71082122 54.8523004 80.66081219 50.81904458 80.609375 46.78515625 C80.60753204 44.91900414 80.60753204 44.91900414 80.60565186 43.01515198 C80.43952887 33.06944999 77.99122152 24.3775785 71 17 C62.02263907 10.12100596 53.02766352 8.8630415 42 10 C34.61690777 11.74440877 28.39955928 15.15505912 24.33984375 21.66015625 C21.08312667 27.50376916 18.89541722 32.00704605 18.79467773 38.7565918 C18.77473251 39.93758957 18.75478729 41.11858734 18.73423767 42.33537292 C18.71752518 43.61044205 18.70081268 44.88551117 18.68359375 46.19921875 C18.6524221 48.15720146 18.6524221 48.15720146 18.62062073 50.15473938 C18.56547727 53.62182353 18.51603405 57.08896646 18.46777344 60.55615234 C18.4175019 64.09543069 18.36184537 67.63462389 18.30664062 71.17382812 C18.1991536 78.11581313 18.09818546 85.05787727 18 92 C11.4 92 4.8 92 -2 92 C-2.0093457 90.33090576 -2.01869141 88.66181152 -2.02832031 86.94213867 C-2.06404881 81.38597801 -2.11797224 75.83018627 -2.18390274 70.27430248 C-2.223171 66.91047086 -2.25545903 63.5468929 -2.27099609 60.18286133 C-2.29255778 56.30247739 -2.33927925 52.42305944 -2.390625 48.54296875 C-2.39185364 47.35293747 -2.39308228 46.16290619 -2.39434814 44.93681335 C-2.58349905 33.99798868 -4.97489621 24.88893372 -12.7578125 16.94921875 C-20.18294576 10.49426841 -27.51225463 9.08429371 -37.15234375 9.58203125 C-45.44948126 10.48334466 -52.52887464 13.59818657 -58 20 C-63.61721698 28.64251448 -64.87857711 36.13643981 -64.8046875 46.296875 C-64.81839386 47.61165833 -64.83210022 48.92644165 -64.84622192 50.28106689 C-64.88188667 53.73352662 -64.88268196 57.18509429 -64.87554932 60.63769531 C-64.87462867 64.17789128 -64.90760366 67.71776641 -64.9375 71.2578125 C-64.99100978 78.17198722 -65.0044445 85.08562168 -65 92 C-71.93 92 -78.86 92 -86 92 C-86.09097833 84.40155989 -86.16410211 76.80332779 -86.20724869 69.20447254 C-86.22797466 65.67459924 -86.2560106 62.14512325 -86.30175781 58.61547852 C-86.35421564 54.54179441 -86.37306869 50.4685165 -86.390625 46.39453125 C-86.42159271 44.52653618 -86.42159271 44.52653618 -86.45318604 42.62080383 C-86.45697002 27.58798725 -81.58306511 13.69260164 -71.1875 2.625 C-66.91051927 -1.36961695 -62.12528349 -4.22416734 -57 -7 C-56.030625 -7.5775 -55.06125 -8.155 -54.0625 -8.75 C-35.57272945 -16.29684512 -15.38947374 -11.87028373 0 0 Z " fill="#0E2042" transform="translate(315,139)"/>
<path d="M0 0 C33.66 0 67.32 0 102 0 C97.50949539 7.85838307 97.50949539 7.85838307 95.44140625 10.515625 C94.97992187 11.11697266 94.5184375 11.71832031 94.04296875 12.33789062 C93.31013672 13.28438477 93.31013672 13.28438477 92.5625 14.25 C88.01448498 20.21082662 83.69436484 26.28570574 79.5 32.5 C74.92874588 39.26499152 70.18732766 45.85275882 65.24707031 52.35229492 C61.45517293 57.35237014 57.85158395 62.45244235 54.328125 67.64453125 C50.96770107 72.48782682 47.46721908 77.23257377 44 82 C74.195 82.495 74.195 82.495 105 83 C105 89.93 105 96.86 105 104 C71.34 104 37.68 104 3 104 C4.38595291 101.22809419 5.60586167 98.99827704 7.36328125 96.5234375 C8.06505493 95.53162476 8.06505493 95.53162476 8.78100586 94.51977539 C9.53909546 93.45811157 9.53909546 93.45811157 10.3125 92.375 C10.84302979 91.62790771 11.37355957 90.88081543 11.92016602 90.11108398 C18.4410049 80.94482782 25.04433049 71.83794161 31.64550781 62.72949219 C38.11170791 53.8043687 44.5479273 44.86165425 50.86743164 35.83178711 C54.15746434 31.14347594 57.55891307 26.58811591 61 22 C30.805 21.505 30.805 21.505 0 21 C0 14.07 0 7.14 0 0 Z " fill="#0F2243" transform="translate(645,127)"/>
<path d="M0 0 C13.73574622 6.5739518 21.93564118 26.39317385 27 40 C30.67433056 50.86088887 31 60.41309251 31 72 C-2.66 72 -36.32 72 -71 72 C-66.89692374 67.2130777 -62.80672795 62.66588241 -58.35205078 58.23852539 C-57.71719254 57.60352112 -57.08233429 56.96851685 -56.42823792 56.31427002 C-54.35296051 54.23968296 -52.27417599 52.16864927 -50.1953125 50.09765625 C-48.74635295 48.65056401 -47.29761568 47.20324916 -45.84909058 45.75572205 C-42.0537669 41.96419893 -38.25544869 38.17568979 -34.45648193 34.38781738 C-30.57332841 30.5149311 -26.69303805 26.63917848 -22.8125 22.76367188 C-15.21112017 15.17298592 -7.60657116 7.58548351 0 0 Z " fill="#0D2042" transform="translate(957,48)"/>
<path d="M0 0 C8.3221157 0 14.65707705 0.17881667 22.4375 2.1875 C23.80297974 2.53131714 23.80297974 2.53131714 25.19604492 2.88208008 C43.34217573 7.57935131 58.67617693 15.74023377 72 29 C70.70783399 31.8404757 69.35119805 33.89841496 67.14671326 36.1005249 C66.56483246 36.68660019 65.98295166 37.27267548 65.38343811 37.87651062 C64.74699875 38.50733047 64.11055939 39.13815033 63.45483398 39.78808594 C62.78315186 40.46166641 62.11146973 41.13524689 61.41943359 41.82923889 C59.19984245 44.05253249 56.97313729 46.26854836 54.74609375 48.484375 C53.20398636 50.02529048 51.66224822 51.56657559 50.12086487 53.10821533 C46.89168546 56.33583094 43.65917378 59.56005875 40.42407227 62.78173828 C36.26685566 66.92192965 32.11628806 71.06870921 27.96795559 75.21780014 C24.78651829 78.39896627 21.6024873 81.57752527 18.41755867 84.75519562 C16.88546498 86.28409663 15.35398547 87.81361335 13.82311821 89.34374237 C11.68984449 91.47486088 9.55331873 93.60266127 7.41577148 95.72949219 C6.4580761 96.68786736 6.4580761 96.68786736 5.48103333 97.66560364 C1.11447576 102 1.11447576 102 0 102 C0 68.34 0 34.68 0 0 Z " fill="#0D1F41" transform="translate(880,12)"/>
<path d="M0 0 C0.78915298 0.0028299 1.57830597 0.00565979 2.39137268 0.00857544 C4.88737797 0.01968193 7.38301123 0.04476795 9.87890625 0.0703125 C11.58137499 0.08035465 13.28384941 0.08947833 14.98632812 0.09765625 C19.13816201 0.1195899 23.28972127 0.15405273 27.44140625 0.1953125 C27.54108671 5.42393581 27.61325372 10.65199294 27.66113281 15.88134766 C27.68111464 17.65618539 27.7083098 19.43095844 27.74316406 21.20556641 C27.97746234 33.45109704 28.02794391 43.83169525 19.44140625 53.5078125 C12.64760677 60.54543513 5.14245289 63.38011218 -4.55859375 63.8828125 C-13.58190964 63.52387397 -20.9600696 59.91449085 -27.55859375 53.8203125 C-34.37715295 46.31989738 -35.93542957 38.39850364 -35.8359375 28.515625 C-35.43628138 23.7310095 -34.03422734 20.26463522 -31.55859375 16.1953125 C-31.14609375 15.49664062 -30.73359375 14.79796875 -30.30859375 14.078125 C-23.35085606 3.60198586 -12.11295802 -0.16642135 0 0 Z " fill="#FBFBFC" transform="translate(174.55859375,146.8046875)"/>
<path d="M0 0 C7.79718833 5.68905963 13.05636547 12.96548349 15.109375 22.5390625 C15.19286275 25.30331483 15.22563186 28.04119962 15.20703125 30.8046875 C15.2056163 31.59808533 15.20420135 32.39148315 15.20274353 33.20892334 C15.19715915 35.73567522 15.18460954 38.26233754 15.171875 40.7890625 C15.16685798 42.50520705 15.16229543 44.22135299 15.15820312 45.9375 C15.14719484 50.13805519 15.12994096 54.33854367 15.109375 58.5390625 C9.72002433 58.63858883 4.3312189 58.71083909 -1.05883789 58.75878906 C-2.88901093 58.77879624 -4.71912092 58.80601101 -6.54907227 58.84082031 C-9.19303012 58.88982253 -11.83613665 58.91214011 -14.48046875 58.9296875 C-15.69040749 58.96065521 -15.69040749 58.96065521 -16.92478943 58.99224854 C-25.13821887 58.99542938 -32.55859089 55.74540166 -38.890625 50.5390625 C-45.80295776 41.98335651 -48.63499483 34.16665161 -48.36328125 23.14453125 C-47.23750324 14.55698495 -42.92239104 7.21526985 -36.0625 1.94140625 C-25.47776016 -4.89298512 -11.15202085 -6.69869709 0 0 Z " fill="#FCFCFD" transform="translate(76.890625,151.4609375)"/>
<path d="M0 0 C6.93 0 13.86 0 21 0 C21 34.32 21 68.64 21 104 C14.07 104 7.14 104 0 104 C0 69.68 0 35.36 0 0 Z " fill="#132546" transform="translate(618,127)"/>
</svg>
